<?xml version="1.0" encoding="UTF-8" standalone="no"?>
<!-- Created with Inkscape (http://www.inkscape.org/) -->

<svg
   width="860.52356"
   height="707.69891"
   viewBox="0 0 227.68019 187.24534"
   version="1.1"
   id="svg1"
   xml:space="preserve"
   xmlns="http://www.w3.org/2000/svg"
   xmlns:svg="http://www.w3.org/2000/svg"><defs
     id="defs1"><linearGradient
       id="swatch7"><stop
         style="stop-color:#fdffe7;stop-opacity:1;"
         offset="0"
         id="stop7" /></linearGradient></defs><g
     id="g26"
     transform="translate(-422.11895,-46.94959)"><g
       id="g9"
       transform="translate(-305.02329,108.35912)"
       style="fill:#fdffe7;fill-opacity:1"><path
         style="fill:#fdffe7;fill-opacity:1;stroke-width:2.42923"
         d="m 735.39996,122.64881 c 5.28713,-3.18205 15.16137,-8.02815 16.35784,-8.02815 0.47311,0 0.68035,-3.75899 0.68035,-12.34049 V 89.939669 h -1.85107 -1.85108 v -14.80859 -14.80859 h 1.85108 1.85107 V 24.84357 -10.635348 h 2.15959 2.15959 V 24.84357 60.322489 h 1.85107 1.85107 v 14.80859 14.80859 h -1.85107 -1.85107 v 11.456521 c 0,10.62629 0.0782,11.43245 1.07979,11.12411 4.97664,-1.53221 12.90478,-2.91607 20.31153,-3.54539 l 8.84288,-0.75134 V 76.251709 44.279848 h -1.85107 -1.85107 V 29.471255 14.662663 h 1.85107 1.85107 V 2.0136574 -10.635348 h 2.15959 2.15959 V 1.9745474 14.584466 l 2.00533,0.193367 2.00533,0.193367 0.16543,14.654336 0.16543,14.654336 h -2.17074 -2.17076 v 32.257367 32.257401 l 5.43451,0.74013 c 6.44788,0.87817 15.57839,3.19738 20.9433,5.3197 l 3.8564,1.52559 v -13.2202 -13.220161 h -1.85107 -1.85108 V 75.131109 60.322513 h 1.85108 1.85107 V 24.843594 -10.635324 h 2.15959 2.15958 v 35.478918 35.478919 h 2.15959 2.15958 v 14.808596 14.80859 h -2.15958 -2.15959 v 14.458491 c 0,14.4523 5.9e-4,14.45869 1.38831,14.89842 0.76355,0.24196 3.56217,1.78782 6.21912,3.43523 6.81834,4.22761 8.88848,4.17665 16.17559,-0.39835 2.97299,-1.8665 5.64073,-3.39363 5.92832,-3.39363 0.28758,0 0.52287,-15.27136 0.52287,-33.936361 V 51.067143 h -1.85107 -1.85108 V 36.567064 22.066983 h 1.85108 1.85107 V 5.7158304 -10.635324 h 2.15959 2.15958 V 5.7158304 22.066983 h 2.15959 2.15959 v 14.46097 14.460994 l -2.00533,0.193366 -2.00533,0.193367 -0.1596,32.548049 c -0.0879,17.901421 -0.0415,32.548051 0.10299,32.548051 0.14454,0 1.57028,-0.56044 3.1683,-1.24544 4.72522,-2.02547 13.61383,-4.38704 20.59862,-5.47284 l 6.52392,-1.01413 0.16421,-16.804131 0.16422,-16.80411 h -2.1695 -2.16949 V 60.322538 45.513946 h 2.15958 2.15959 V 17.439323 -10.6353 h 1.84478 1.84478 l 0.16057,27.920367 0.16058,27.920366 2.00533,0.193367 2.00533,0.193367 v 14.769506 14.769506 h -2.15959 -2.15959 v 16.58018 16.580181 l 6.32451,0.42254 c 7.14859,0.47761 15.86135,1.77145 20.67032,3.06951 l 3.23938,0.8744 V 78.468969 44.279945 h -1.85107 -1.85107 V 29.471352 14.66276 h 1.85107 1.85107 V 2.0137554 -10.635251 h 2.15959 2.15959 V 2.0137554 14.66276 h 1.85107 1.85107 v 14.808592 14.808593 h -1.85617 -1.85618 l 0.15936,34.933414 0.15936,34.933431 5.48163,2.36218 c 3.01492,1.29923 8.03135,3.9048 11.14755,5.7902 3.1163,1.88542 6.2722,3.42803 7.0131,3.42803 h 1.3472 v -84.245025 -84.24502 l -4.7819,-3.100566 c -13.89731,-9.010871 -29.49567,-14.2791 -45.38202,-15.327442 -20.69826,-1.365879 -40.34197,3.680462 -57.43817,14.75545 l -5.88632,3.813181 -6.41902,-4.029431 c -16.11734,-10.117378 -31.77075,-14.674406 -50.39136,-14.670004 -19.45928,0.0046 -35.26947,4.701166 -51.98139,15.4417 l -5.396,3.467942 -0.002,84.069605 -0.002,84.06961 h 1.57256 c 0.86491,0 3.87416,-1.38524 6.68726,-3.0783 z"
         id="path13" /></g></g></svg>
