<?xml version="1.0" encoding="UTF-8" standalone="no"?>
<!-- Created with Inkscape (http://www.inkscape.org/) -->

<svg
   width="681.65094"
   height="707.11969"
   viewBox="0 0 180.35348 187.09209"
   version="1.1"
   id="svg1"
   xml:space="preserve"
   xmlns="http://www.w3.org/2000/svg"
   xmlns:svg="http://www.w3.org/2000/svg"><defs
     id="defs1" /><g
     id="logo-shape"><path
       style="fill:#fefff4;fill-opacity:1;stroke:none;stroke-width:0.264583;stroke-dasharray:none;stroke-opacity:1"
       d="m 83.573857,134.23275 c -3.462988,-3.04442 -16.569786,-10.76401 -23.608409,-13.90479 -10.86552,-4.84841 -26.244487,-8.96855 -33.492401,-8.97287 l -2.525697,-0.002 V 77.684752 44.015918 l 0.841899,-0.169566 c 2.607752,-0.525232 3.908507,-0.552061 9.758934,-0.201268 7.034467,0.421785 12.834078,1.143452 16.442754,2.046023 8.059278,2.015722 19.777674,7.057019 21.305383,9.165651 1.167202,1.611032 1.410825,6.462379 1.413778,28.152892 l 0.0028,20.86039 h 2.750185 2.750187 l 0.258512,-20.6733 c 0.471942,-37.741197 0.974153,-62.319503 1.3468,-65.913216 0.484765,-4.674916 1.134467,-6.173334 3.692282,-8.5155208 4.065413,-3.7226947 9.062127,-6.2310604 15.704246,-7.88357198 4.76041,-1.18435626 11.97086,-1.17838991 15.59274,0.0129011 8.89031,2.92416068 10.2347,9.68549468 3.22733,16.23115868 -5.1343,4.795999 -11.71664,7.610674 -19.999,8.551781 -3.340794,0.379608 -10.187401,-0.07056 -11.463978,-0.753764 -0.392647,-0.210137 -0.869784,-0.382069 -1.060302,-0.382069 -0.209519,0 -0.456287,21.210742 -0.624475,53.675906 -0.152943,29.521745 -0.386988,54.508505 -0.520097,55.526135 l -0.242022,1.85023 z"
       id="path29" /><path
       style="fill:#fefff4;fill-opacity:1;stroke:none;stroke-width:0.264583;stroke-dasharray:none;stroke-opacity:1"
       d="m 104.39548,148.93601 c 0,-0.43752 4.04331,-4.46372 6.73519,-6.70669 11.82388,-9.85207 28.67509,-16.08031 49.5785,-18.32429 3.08696,-0.33139 6.15989,-0.68877 6.82874,-0.79419 l 1.21607,-0.19167 V 92.440673 61.962175 h 5.79975 5.79975 v 35.359759 35.359756 l -5.7062,0.002 c -6.05469,0.002 -12.51928,0.39675 -21.98292,1.34367 -17.76773,1.77782 -35.31875,7.07267 -45.93754,13.8586 -1.99828,1.277 -2.33134,1.42708 -2.33134,1.05052 z"
       id="path30" /><path
       style="fill:#ffff80;fill-opacity:1;stroke-width:0.374176"
       d="m 70.411659,186.91418 c -6.959839,-0.68363 -12.414171,-5.07339 -12.414171,-9.99119 0,-6.59994 9.245595,-13.11002 20.864478,-14.69127 4.138888,-0.56327 7.659765,-0.34668 12.36902,0.76092 1.917518,0.45099 3.549216,0.75716 3.625999,0.68038 0.07678,-0.0768 0.260537,-21.4819 0.408352,-47.56693 l 0.268753,-47.427348 1.156642,-1.526765 c 2.943879,-3.885917 13.005758,-11.19256 20.348458,-14.776461 9.60681,-4.688985 20.52172,-7.402859 35.9058,-8.927587 l 2.33861,-0.231783 v 33.851902 33.851902 l -1.02899,0.20973 c -0.56594,0.11536 -3.55468,0.63213 -6.64165,1.14839 -14.39328,2.4071 -25.64611,6.20814 -36.73107,12.4072 -1.26943,0.70991 -2.39624,1.14805 -2.50404,0.97364 -0.10778,-0.1744 -0.3165,-8.34746 -0.4638,-18.16235 l -0.26784,-17.845262 h -3.25179 -3.2518 l -0.26916,43.123942 -0.26915,43.12394 -0.934017,1.60304 c -2.1336,3.6619 -9.511779,7.92904 -15.293301,8.84482 -4.494192,0.71188 -10.152452,0.94166 -13.965333,0.56714 z"
       id="path31" /><path
       style="fill:#ffff80;fill-opacity:1;stroke-width:0.374176"
       d="m 73.523622,147.78655 c -8.93136,-5.53911 -22.251089,-10.16438 -35.9188,-12.47277 -8.771625,-1.48148 -12.987176,-1.84359 -33.3953275,-2.86865 L 0,132.23369 V 97.097932 61.962175 h 5.9868384 5.9868356 v 30.47337 c 0,18.775475 0.136027,30.557435 0.354353,30.692375 0.194895,0.12045 2.951065,0.45725 6.124819,0.74844 6.304291,0.57843 16.527489,2.51029 22.711403,4.29176 8.07906,2.32741 15.870282,5.85434 22.322131,10.10476 4.216109,2.77754 12.183587,9.78867 11.687562,10.28469 -0.08571,0.0857 -0.828358,-0.26125 -1.65032,-0.77102 z"
       id="path32" /></g></svg>
