<?xml version="1.0" encoding="UTF-8" standalone="no"?>
<!-- Created with Inkscape (http://www.inkscape.org/) -->

<svg
   width="1200"
   height="800"
   viewBox="0 0 317.5 211.66667"
   version="1.1"
   id="svg1"
   xml:space="preserve"
   inkscape:export-filename="Logo sur fond sombre.png"
   inkscape:export-xdpi="96"
   inkscape:export-ydpi="96"
   inkscape:version="1.4.2 (f4327f4, 2025-05-13)"
   sodipodi:docname="Logo sur fond sombre base.svg"
   xmlns:inkscape="http://www.inkscape.org/namespaces/inkscape"
   xmlns:sodipodi="http://sodipodi.sourceforge.net/DTD/sodipodi-0.dtd"
   xmlns="http://www.w3.org/2000/svg"
   xmlns:svg="http://www.w3.org/2000/svg"><sodipodi:namedview
     id="namedview1"
     pagecolor="#ffffff"
     bordercolor="#000000"
     borderopacity="0.25"
     inkscape:showpageshadow="2"
     inkscape:pageopacity="0.0"
     inkscape:pagecheckerboard="false"
     inkscape:deskcolor="#d1d1d1"
     inkscape:document-units="px"
     showgrid="true"
     inkscape:zoom="1"
     inkscape:cx="430"
     inkscape:cy="323.5"
     inkscape:window-width="2560"
     inkscape:window-height="1351"
     inkscape:window-x="-9"
     inkscape:window-y="-9"
     inkscape:window-maximized="1"
     inkscape:current-layer="g26"
     inkscape:export-bgcolor="#424242ff"><inkscape:grid
       id="grid1"
       units="px"
       originx="0"
       originy="0"
       spacingx="0.26458333"
       spacingy="0.26458334"
       empcolor="#0099e5"
       empopacity="0.30196078"
       color="#0099e5"
       opacity="0.14901961"
       empspacing="5"
       enabled="true"
       visible="true" /><inkscape:page
       x="0"
       y="0"
       width="317.5"
       height="211.66667"
       id="page2"
       margin="0"
       bleed="0" /></sodipodi:namedview><defs
     id="defs1" /><g
     id="g26"
     transform="translate(-375.90236,-35.701836)"><path
       style="opacity:1;fill:#fefff4;fill-opacity:1;stroke-width:0.99999998;stroke-dasharray:none;stroke:none;stroke-opacity:1"
       d="m 546.3865,551.74869 c -13.08846,-11.50648 -62.62596,-40.68288 -89.22863,-52.55352 -41.06653,-18.3247 -99.19176,-33.8969 -126.58545,-33.91322 l -9.54594,-0.006 V 338.02398 210.7717 l 3.18198,-0.64088 c 9.85607,-1.98513 14.77231,-2.08653 36.88416,-0.7607 26.58696,1.59415 48.50675,4.32171 62.14584,7.733 30.46026,7.61848 74.75026,26.6722 80.52428,34.64183 4.41147,6.08894 5.33225,24.42474 5.34341,106.40463 l 0.0107,78.84241 h 10.3944 10.39441 l 0.97705,-78.1353 c 1.78372,-142.64389 3.68184,-235.53827 5.09027,-249.12081 1.83218,-17.668972 4.28775,-23.332285 13.95508,-32.184643 15.36534,-14.070027 34.25056,-23.550464 59.35462,-29.796177 17.99209,-4.476307 45.2442,-4.453757 58.9332,0.04876 33.60117,11.051946 38.68233,36.606594 12.19776,61.34611 -19.40522,18.12661 -44.28333,28.76475 -75.58675,32.32169 -12.62662,1.43474 -38.50356,-0.26669 -43.32842,-2.84887 -1.48402,-0.79422 -3.28737,-1.44404 -4.00744,-1.44404 -0.79188,0 -1.72455,80.16658 -2.36022,202.86956 -0.57805,111.57826 -1.46263,206.01641 -1.96572,209.86256 l -0.91473,6.99299 z"
       id="path29"
       transform="matrix(0.26458334,0,0,0.26458334,375.90236,35.701836)" /><path
       style="opacity:1;fill:#fefff4;fill-opacity:1;stroke-width:0.99999998;stroke-dasharray:none;stroke:none;stroke-opacity:1"
       d="m 625.08239,607.32007 c 0,-1.65363 15.28179,-16.87076 25.45585,-25.34814 44.68866,-37.23616 108.3783,-60.77595 187.38329,-69.25715 11.66726,-1.25248 23.28149,-2.60323 25.8094,-3.00165 l 4.59619,-0.72442 V 393.79439 278.60007 h 21.92031 21.92031 v 133.64318 133.64318 l -21.56675,0.006 c -22.88387,0.006 -47.31694,1.49953 -83.08505,5.07844 -67.15361,6.7193 -133.48816,26.73134 -173.62217,52.37895 -7.55256,4.82645 -8.81138,5.3937 -8.81138,3.97049 z"
       id="path30"
       transform="matrix(0.26458334,0,0,0.26458334,375.90236,35.701836)" /><path
       style="opacity:1;fill:#ffff80;fill-opacity:1;stroke-width:1.41421"
       d="m 496.63961,750.8596 c -26.3049,-2.58379 -46.9197,-19.17501 -46.9197,-37.76196 0,-24.94465 34.94398,-49.5497 78.85787,-55.52607 15.64304,-2.1289 28.95029,-1.31027 46.74905,2.87592 7.24731,1.70454 13.41436,2.86172 13.70456,2.57153 0.29018,-0.29019 0.98471,-81.19144 1.54338,-179.78055 l 1.01576,-179.25295 4.37156,-5.77045 c 11.12647,-14.68693 49.15561,-42.30259 76.90757,-55.84804 36.30918,-17.72215 77.56238,-27.97931 135.70694,-33.74206 l 8.83884,-0.87603 v 127.94419 127.94418 l -3.88909,0.7927 c -2.139,0.43599 -13.43503,2.38914 -25.10229,4.34036 -54.39979,9.09771 -96.93019,23.46384 -138.82611,46.89337 -4.79784,2.68312 -9.05666,4.33906 -9.46406,3.6799 -0.40737,-0.65917 -1.19622,-31.54947 -1.75298,-68.64512 l -1.01228,-67.44665 h -12.29025 -12.29027 l -1.01729,162.98812 -1.01727,162.98811 -3.53013,6.05876 c -8.064,13.84024 -35.95003,29.968 -57.80145,33.42923 -16.98592,2.69055 -38.37147,3.55901 -52.78236,2.14351 z"
       id="path31"
       transform="matrix(0.26458334,0,0,0.26458334,375.90236,35.701836)" /><path
       style="opacity:1;fill:#ffff80;fill-opacity:1;stroke-width:1.41421"
       d="m 508.40136,602.97566 c -33.75632,-20.93523 -84.0986,-38.41655 -135.75609,-47.1412 -33.1526,-5.59928 -49.08539,-6.9679 -126.21856,-10.84214 l -15.9099,-0.79913 V 411.39663 278.60007 h 22.62742 22.62741 v 115.17494 c 0,70.96242 0.51412,115.49268 1.33929,116.00268 0.73661,0.45525 11.15363,1.72819 23.14892,2.82876 23.82724,2.18616 62.4661,9.48771 85.83837,16.22079 30.53503,8.79654 59.98217,22.12665 84.36711,38.19125 15.9349,10.49778 46.0482,36.99653 44.17346,38.87126 -0.32395,0.32395 -3.1308,-0.98739 -6.23743,-2.91409 z"
       id="path32"
       transform="matrix(0.26458334,0,0,0.26458334,375.90236,35.701836)" /></g></svg>
